HIERARCHY
ROOT Hips
{
    OFFSET 0.000000 0.000000 0.000000
    CHANNELS 6 Xposition Yposition Zposition Zrotation Xrotation Yrotation
    JOINT Spine
    {
        OFFSET -0.000000 14.517291 0.000000
        CHANNELS 3 Zrotation Xrotation Yrotation
        JOINT Spine1
        {
            OFFSET -0.000000 37.558300 0.000000
            CHANNELS 3 Zrotation Xrotation Yrotation
            JOINT Neck
            {
                OFFSET -0.000000 37.404057 3.400369
                CHANNELS 3 Zrotation Xrotation Yrotation
                JOINT Head
                {
                    OFFSET -0.000000 24.785618 -3.540803
                    CHANNELS 3 Zrotation Xrotation Yrotation
                    End Site
                    {
                        OFFSET -0.000000 35.408028 0.000000
                    }
                }
            }
            JOINT LeftShoulder
            {
                OFFSET 6.992933 33.973492 -0.192664
                CHANNELS 3 Zrotation Xrotation Yrotation
                JOINT LeftArm
                {
                    OFFSET 21.527611 0.000000 0.000000
                    CHANNELS 3 Zrotation Xrotation Yrotation
                    JOINT LeftForeArm
                    {
                        OFFSET 56.353916 0.000000 0.000000
                        CHANNELS 3 Zrotation Xrotation Yrotation
                        JOINT LeftHand
                        {
                            OFFSET 47.774071 0.000000 0.000000
                            CHANNELS 3 Zrotation Xrotation Yrotation
                            End Site
                            {
                                OFFSET 26.556021 0.000000 0.000000
                            }
                        }
                    }
                }
            }
            JOINT RightShoulder
            {
                OFFSET -7.065357 33.973492 -0.192664
                CHANNELS 3 Zrotation Xrotation Yrotation
                JOINT RightArm
                {
                    OFFSET -21.527611 0.000000 0.000000
                    CHANNELS 3 Zrotation Xrotation Yrotation
                    JOINT RightForeArm
                    {
                        OFFSET -56.353916 0.000000 0.000000
                        CHANNELS 3 Zrotation Xrotation Yrotation
                        JOINT RightHand
                        {
                            OFFSET -47.774071 0.000000 0.000000
                            CHANNELS 3 Zrotation Xrotation Yrotation
                            End Site
                            {
                                OFFSET -26.556021 0.000000 0.000000
                            }
                        }
                    }
                }
            }
        }
    }
    JOINT LeftUpLeg
    {
        OFFSET 17.704014 0.000000 0.000000
        CHANNELS 3 Zrotation Xrotation Yrotation
        JOINT LeftLeg
        {
            OFFSET -0.000000 -81.181816 0.000000
            CHANNELS 3 Zrotation Xrotation Yrotation
            JOINT LeftFoot
            {
                OFFSET -0.000000 -62.821102 0.000000
                CHANNELS 3 Zrotation Xrotation Yrotation
                JOINT LeftToeBase
                {
                    OFFSET -0.000000 -11.507608 26.556021
                    CHANNELS 3 Zrotation Xrotation Yrotation
                    End Site
                    {
                        OFFSET -0.000000 0.000000 7.081605
                    }
                }
            }
        }
    }
    JOINT RightUpLeg
    {
        OFFSET -17.704014 0.000000 0.000000
        CHANNELS 3 Zrotation Xrotation Yrotation
        JOINT RightLeg
        {
            OFFSET -0.000000 -81.181816 0.000000
            CHANNELS 3 Zrotation Xrotation Yrotation
            JOINT RightFoot
            {
                OFFSET -0.000000 -62.821102 0.000000
                CHANNELS 3 Zrotation Xrotation Yrotation
                JOINT RightToeBase
                {
                    OFFSET -0.000000 -11.507608 26.556021
                    CHANNELS 3 Zrotation Xrotation Yrotation
                    End Site
                    {
                        OFFSET -0.000000 0.000000 7.081605
                    }
                }
            }
        }
    }
}
MOTION
Frames:    12
Frame Time:    0.008333
6.491158    161.184387    -22.124798    3.196672    0.065629    -74.445137    6.176756    -1.272479    4.368618    -1.002725    -0.811871    1.429686    11.693231    8.750983    24.728336    -12.430086    0.480758    23.321329    -4.137959    5.953764    -3.843342    -47.142204    11.528065    -12.301387    52.488857    -50.744633    -29.369078    -10.423518    -38.689148    -23.459442    -8.674055    7.893223    4.058368    34.155434    13.396171    72.808739    16.667278    8.292356    105.941223    10.299129    -12.678747    15.798429    15.250898    -3.451987    13.361949    -11.832722    13.917906    18.848183    -6.467182    -6.375845    33.704849    0.000000    0.000000    0.000000    -15.501293    -10.363124    14.264989    5.559895    13.410645    5.770968    8.330791    -6.716630    -2.249753    0.000000    0.000000    0.000000    
6.510819    161.184891    -22.117451    3.198954    0.058125    -74.437065    6.166645    -1.264962    4.368387    -0.987642    -0.828313    1.429740    11.676707    8.761035    24.728687    -12.416634    0.471055    23.324623    -4.151230    5.965040    -3.857015    -47.128235    11.542943    -12.298832    52.558823    -50.738182    -29.306623    -10.473912    -38.679066    -23.485409    -8.677997    7.895070    4.065927    34.151978    13.412442    72.804062    16.629848    8.265696    105.961212    10.274426    -12.666517    15.787889    15.240991    -3.463087    13.368688    -11.834501    13.929670    18.821770    -6.456752    -6.379045    33.706604    0.000000    0.000000    0.000000    -15.516835    -10.353745    14.260191    5.600117    13.458879    5.756305    8.205271    -6.833261    -2.358581    0.000000    0.000000    0.000000    
6.527995    161.185150    -22.115902    3.202219    0.055182    -74.428894    6.162168    -1.274228    4.362703    -0.975198    -0.806208    1.427987    11.652601    8.751965    24.733900    -12.407538    0.448382    23.329540    -4.154581    5.947935    -3.841738    -47.112370    11.621458    -12.300208    52.666397    -50.747509    -29.199228    -10.514794    -38.699760    -23.504469    -8.696739    7.894180    4.057112    34.143875    13.425502    72.831810    16.585884    8.213072    105.979294    10.296175    -12.661581    15.798620    15.236403    -3.475456    13.376522    -11.830705    13.933846    18.821211    -6.466083    -6.375583    33.697060    0.000000    0.000000    0.000000    -15.524014    -10.348608    14.237690    5.554815    13.365069    5.747559    8.319527    -6.704118    -2.244562    0.000000    0.000000    0.000000    
6.545911    161.184616    -22.112890    3.196668    0.048642    -74.413414    6.171987    -1.267769    4.356095    -0.995097    -0.799677    1.425793    11.673029    8.742867    24.738449    -12.420794    0.456458    23.331099    -4.143709    5.933390    -3.847671    -47.100906    11.581076    -12.296646    52.566845    -50.742676    -29.276899    -10.470008    -38.694298    -23.503412    -8.684052    7.896473    4.053294    34.155315    13.423963    72.840736    16.578056    8.209858    105.979195    10.282860    -12.656759    15.787643    15.235811    -3.476838    13.350976    -11.852412    13.925861    18.845036    -6.453162    -6.365777    33.688538    0.000000    0.000000    0.000000    -15.533648    -10.331849    14.228448    5.551301    13.345785    5.764134    8.306589    -6.700803    -2.263992    0.000000    0.000000    0.000000    
6.562513    161.182358    -22.108910    3.194679    0.045048    -74.401756    6.168707    -1.267968    4.357239    -0.995192    -0.800823    1.426152    11.705108    8.765378    24.737898    -12.465027    0.444229    23.323673    -4.133074    5.940005    -3.864578    -47.096958    11.550840    -12.299367    52.524059    -50.743736    -29.319914    -10.447078    -38.693817    -23.484108    -8.671040    7.899377    4.056046    34.148514    13.431969    72.831566    16.571943    8.184657    105.992447    10.279585    -12.679316    15.784716    15.231154    -3.487982    13.363413    -11.846366    13.941663    18.825405    -6.462231    -6.374299    33.682575    0.000000    0.000000    0.000000    -15.546769    -10.320382    14.246494    5.558521    13.321825    5.773032    8.321846    -6.702210    -2.291545    0.000000    0.000000    0.000000    
6.582764    161.181122    -22.104364    3.193383    0.038001    -74.391083    6.168807    -1.264853    4.349102    -0.987694    -0.799030    1.423552    11.671999    8.762087    24.735729    -12.438326    0.435965    23.325905    -4.147169    5.939487    -3.862264    -47.072689    11.576616    -12.292100    52.567825    -50.739403    -29.269625    -10.490658    -38.687729    -23.529383    -8.683198    7.905617    4.070291    34.153679    13.430879    72.838531    16.573526    8.170258    105.984497    10.266786    -12.694693    15.780105    15.223911    -3.491870    13.357924    -11.852844    13.936583    18.837755    -6.451863    -6.373825    33.662861    0.000000    0.000000    0.000000    -15.560540    -10.312563    14.253675    5.560131    13.307521    5.780621    8.327060    -6.704050    -2.325094    0.000000    0.000000    0.000000    
6.602520    161.176773    -22.101250    3.192504    0.034993    -74.374527    6.171232    -1.264653    4.346879    -0.983807    -0.794183    1.422880    11.667797    8.766752    24.739899    -12.447609    0.424541    23.328669    -4.152348    5.940054    -3.869013    -47.049858    11.583324    -12.295540    52.561642    -50.746090    -29.266163    -10.491139    -38.698036    -23.541842    -8.683431    7.908278    4.062204    34.168484    13.425607    72.845154    16.596554    8.190708    105.966881    10.254054    -12.701005    15.778747    15.223395    -3.507778    13.358817    -11.859926    13.950743    18.843538    -6.448472    -6.377399    33.641220    0.000000    0.000000    0.000000    -15.571909    -10.303603    14.275046    5.568611    13.284174    5.739039    8.335693    -6.694993    -2.319240    0.000000    0.000000    0.000000    
6.620468    161.173828    -22.099466    3.191600    0.031612    -74.364906    6.164601    -1.269700    4.352423    -0.966548    -0.783111    1.424862    11.671072    8.763459    24.742783    -12.466690    0.433613    23.329632    -4.157623    5.938962    -3.883631    -47.035465    11.567584    -12.299469    52.533310    -50.741093    -29.289629    -10.484999    -38.690151    -23.544218    -8.686993    7.904982    4.046727    34.157909    13.443995    72.857452    16.592903    8.161675    105.963593    10.226550    -12.727285    15.775824    15.223145    -3.515324    13.364564    -11.869735    13.956347    18.831848    -6.433196    -6.376890    33.650085    0.000000    0.000000    0.000000    -15.580884    -10.299355    14.279142    5.567817    13.271290    5.705250    8.348626    -6.691539    -2.281587    0.000000    0.000000    0.000000    
6.637672    161.172653    -22.097324    3.189105    0.027584    -74.355690    6.165253    -1.273145    4.355311    -0.961432    -0.769476    1.425925    11.650871    8.753754    24.735699    -12.445688    0.425748    23.324419    -4.159842    5.936411    -3.898195    -47.023186    11.546373    -12.295229    52.502373    -50.732193    -29.319557    -10.482800    -38.673286    -23.567253    -8.689715    7.899718    4.043026    34.172867    13.445153    72.858246    16.611525    8.171944    105.951294    10.204724    -12.741946    15.761368    15.218972    -3.522676    13.380301    -11.866469    13.965782    18.825190    -6.430453    -6.374465    33.631195    0.000000    0.000000    0.000000    -15.587785    -10.295584    14.298872    5.571022    13.267140    5.693884    8.356822    -6.692535    -2.296040    0.000000    0.000000    0.000000    
6.655429    161.170959    -22.096605    3.189543    0.024595    -74.343079    6.168056    -1.274350    4.357266    -0.980030    -0.767482    1.426409    11.700082    8.768954    24.732754    -12.495492    0.417957    23.312227    -4.133474    5.935309    -3.906341    -47.026844    11.516266    -12.300232    52.483482    -50.707386    -29.346266    -10.541874    -38.623886    -23.604668    -8.652641    7.899982    4.034343    34.168652    13.448009    72.845451    16.610476    8.176081    105.951889    10.184827    -12.740629    15.745247    15.214103    -3.533934    13.400595    -11.860792    13.970875    18.818995    -6.425137    -6.367481    33.615433    0.000000    0.000000    0.000000    -15.594096    -10.290962    14.308267    5.574897    13.256924    5.659813    8.368730    -6.700493    -2.304479    0.000000    0.000000    0.000000    
6.673098    161.170242    -22.094656    3.185433    0.012454    -74.331497    6.150123    -1.264143    4.367943    -0.964318    -0.777813    1.430218    11.706732    8.784235    24.726665    -12.508315    0.409456    23.304445    -4.127455    5.941406    -3.931081    -47.029541    11.498348    -12.301906    52.447994    -50.714806    -29.382702    -10.522460    -38.630928    -23.595224    -8.639569    7.910637    4.007555    34.149635    13.461802    72.851860    16.601608    8.158838    105.951141    10.169258    -12.748742    15.727415    15.202511    -3.540352    13.409402    -11.857384    13.983041    18.822067    -6.424768    -6.360473    33.585182    0.000000    0.000000    0.000000    -15.608181    -10.282965    14.305840    5.574685    13.250247    5.664131    8.348951    -6.695332    -2.308028    0.000000    0.000000    0.000000    
6.692091    161.168488    -22.092140    3.188070    0.007014    -74.318092    6.141208    -1.268668    4.366199    -0.952060    -0.779190    1.429722    11.694582    8.794287    24.718023    -12.498549    0.398086    23.297348    -4.131190    5.948113    -3.930759    -47.022594    11.487127    -12.314344    52.428478    -50.715851    -29.405066    -10.512138    -38.630394    -23.585457    -8.635319    7.910812    4.011081    34.143848    13.473709    72.836906    16.586779    8.143440    105.960579    10.144489    -12.751247    15.722157    15.194769    -3.554152    13.402786    -11.860487    13.989682    18.825541    -6.419592    -6.363577    33.575668    0.000000    0.000000    0.000000    -15.617731    -10.285513    14.290370    5.567660    13.252628    5.682625    8.373318    -6.698423    -2.330759    0.000000    0.000000    0.000000    
